<svg xmlns="http://www.w3.org/2000/svg" viewBox="0 0 512 512" fill="white">
  <path stroke-miterlimit="10" stroke-linejoin="round" stroke-linecap="round" stroke-width="14" stroke="white" fill="none" id="svg_2" d="m444.4,241.1c0.1,0.7 0.1,1.5 0.1,2.2c0,32.4 0.2,64.8 -0.1,97.2c-0.3,36.4 -27.1,65.9 -63.1,69.6c-2.9,0.3 -5.9,0.3 -8.8,0.3c-14.1,0 -18,0 -32.2,0m-27.7,0c-0.2,0 -0.5,0 -0.7,0m-27.5,0c-51.6,0 -93.2,0 -144.9,0c-27.4,0 -48.3,-11.7 -62.6,-35.1c-4.7,-7.6 -7.3,-16 -8.6,-24.8c-0.1,-0.9 -0.5,-1.8 -0.8,-2.8c0,-16.7 0,-33.4 0,-50.1m0,-30.5c0,-9.7 0,-19.4 0,-29.1" />
  <path d="m261.7,276.3c0,9.3 0,45.1 0,45.1c0,3.3 -2.7,6 -6,6c-3.3,0 -6,-2.7 -6,-6l0,-210.8c0,-3.3 2.7,-6 6,-6c3.3,0 6,2.7 6,6c0,0 0,56.4 0,106.1" />
  <path d="m193,179c-6.6,6.6 -10.6,10.6 -10.6,10.6c-2.3,2.3 -6.2,2.3 -8.5,0s-2.3,-6.2 0,-8.5l77.8,-77.8c2.3,-2.3 6.2,-2.3 8.5,0c2.3,2.3 2.3,6.2 0,8.5c0,0 10.2,-10.2 -25,25" />
  <path d="m262.5,122.4c-6.6,-6.6 -10.6,-10.6 -10.6,-10.6c-2.3,-2.3 -2.3,-6.2 0,-8.5c2.3,-2.3 6.2,-2.3 8.5,0l77.8,77.8c2.3,2.3 2.3,6.2 0,8.5c-2.3,2.3 -6.2,2.3 -8.5,0c0,0 10.2,10.2 -25,-25" />
</svg>
