<svg xmlns="http://www.w3.org/2000/svg" viewBox="0 0 512 512" stroke="white" stroke-miterlimit="10" stroke-linejoin="round" stroke-linecap="round" stroke-width="10" fill="none">
  <path d="m240.2,137.3c0.4,-0.9 0.7,-1.9 1.1,-2.8c1.3,-3.3 7.1,-26.5 7.5,-30.1c0.8,-7.5 0.7,-15.2 2.3,-22.5c1.9,-8.8 8.1,-14.3 16.8,-16.8c2.9,-0.7 5.9,-0.8 9,0c6.9,2.3 8.4,2.5 14.7,5.8c15.3,8.2 22.4,20.7 26.2,40c3.5,18 1.2,35.6 -3.8,52.9c-3.5,12 -6.2,24.3 -9.1,36.5c-0.6,2.6 -0.4,5.4 -0.6,8.5c8.1,-1.5 15.6,-3.1 23.2,-4.3c22.2,-3.4 44.5,-5.4 66.8,-0.4c12.7,2.8 24.1,8.2 32,19c8.8,12.1 10.1,25.4 5.6,39.4c-0.8,2.5 -0.7,4.2 0.9,6.5c11.3,16.5 11.4,35.5 0.1,52c-2.1,3.1 -2.4,5.6 -1.4,9.2c4.7,17.8 0.9,33.8 -11.4,47.5c-3.3,3.7 -4.7,6.9 -4.6,12c0.3,19.7 -9.4,34.1 -26.1,43.8c-14.8,8.7 -31.2,12.6 -48.1,13.3c-30,1.3 -60.1,0.4 -90.1,-1.2m-17.9,-0.5c-0.5,0 -0.2,-0.1 -0.7,-0.1m-18.3,-2.2c-12.9,-1.2 -25.8,-2.7 -38.7,-3.8c-1.8,-0.2 -4,0.1 -5.6,1c-5.6,3.1 -11.5,4.6 -17.8,4.7c-15.6,0.1 -31.1,0.1 -46.7,0c-16.6,-0.2 -29,-9.5 -33.3,-25.2c-0.9,-3.3 -1.2,-6.9 -1.2,-10.3c-0.1,-41.8 -0.1,-83.7 0,-125.5c0,-6.4 1.3,-12.2 3.6,-17.1m15.7,-15.2c4.7,-2.1 10.2,-3.2 16.2,-3.2c13.3,0 26.6,0.1 40,0c7.6,-0.1 15.2,0 22.3,4c4.5,-9.2 9.5,-17.9 17,-24.5c7.9,-7 14.9,-14.9 20,-24c6.1,-10.9 18.7,-30 24.6,-41.1" />
</svg>
