<svg xmlns="http://www.w3.org/2000/svg" viewBox="0 0 512 512" stroke="white" stroke-miterlimit="10" stroke-linejoin="round" stroke-linecap="round" stroke-width="10" fill="none">
	<path d="m65.7,230.2c0-26.3,0-52.6,0-78.9c1.4-4.4,2.2-9,4.2-13.2c8-17.2,21.7-26.5,40.6-28.1c1.5-0.1,3-0.1,4.5-0.1   c31.7,0,62.7-0.2,93.5-0.5" />
	<path d="m236.3,109c0.5,0,0,0,0.5,0" />
	<path d="m262.8,108.8c44.2-0.5,88.5-1,134.2-1c22.1,0,40,12.2,46.6,32.1c1.7,5,2.5,10.6,2.5,15.9   c0.2,66.1,0.2,132.1,0.1,198.2c0,27.4-20.8,48-48.5,48c-45.2,0.1-84.3,2.1-129.5,2.1c-51.2,0-102.4,0-153.6,0   c-23.8,0-42.5-14.6-47.8-37.2c-0.3-1.4-0.8-2.9-1.1-4.3c0-35.1,0-70.1,0-105.2" />
	<path d="m386.2,155.5c-33,29.5-65.9,59.1-98.9,88.7c-9.8,8.8-19.6,17.6-29.5,26.4c-1.1-0.9-2-1.6-2.8-2.3   c-41.7-37.3-83.4-74.7-125.2-112c-1.3-1.2-2.6-2.4-4-3.4" />
	<path d="m317,281.1c1.2,1.1,2.2,2,3.2,3c7.1,6.7,13,12.3,18.3,17.4" />
	<path d="m357.3,319.3c9.1,8.6,18.5,17.5,32.2,30.6" />
	<path d="m122.5,351.7c1.1-1.2,2-2.2,3-3.2c28.4-29.9,37.4-39.4,65.8-69.4" />
</svg>
