<svg xmlns="http://www.w3.org/2000/svg" viewBox="0 0 512 512" fill="white">
  <path d="m255.989,312.355c31.068,0 56.399,-25.302 56.399,-56.376c0,-9.967 -2.703,-19.34 -7.292,-27.498c-1.052,-1.832 -2.154,-3.656 -3.398,-5.357c-10.266,-14.203 -26.897,-23.506 -45.709,-23.506c-18.823,0 -35.462,9.303 -45.721,23.506c-1.233,1.701 -2.343,3.525 -3.388,5.357c-4.6,8.151 -7.291,17.518 -7.291,27.498c0.001,31.075 25.302,56.376 56.4,56.376z" />
  <path d="m340.218,232.076c2.162,7.6 3.366,15.609 3.366,23.873c0,48.305 -39.296,87.609 -87.595,87.609c-48.3,0 -87.604,-39.281 -87.604,-87.586c0,-8.264 1.197,-16.3 3.353,-23.892c0.878,-3.076 1.89,-6.08 3.087,-9.08l-47.825,0l0,16.716l0,114.555c0,16.936 13.774,30.729 30.703,30.729l196.55,0c16.933,0 30.747,-13.793 30.747,-30.729l0,-114.534l0,-16.737l-47.884,0c1.208,3 2.221,6.007 3.102,9.076z" />
  <polygon points="379,187.002 379,139.778 379,132.693     371.973,132.739 324.76,132.882 324.937,187.182" />
</svg>
