<svg xmlns="http://www.w3.org/2000/svg" viewBox="0 0 512 512" stroke="black" stroke-miterlimit="10" stroke-linejoin="round" stroke-linecap="round" stroke-width="10" fill="none">
	<path d="m117.2,95.383006c0,-9.344453 0,-18.609039 0,-27.953492c0,-18.369437 13.4,-32.106582 34.6,-35.540868c3.6,-0.55907 7.3,-0.638937 10.9,-0.638937c62.3,0 124.7,-0.079867 187,0c26.8,0 45,14.376081 45,35.780469c0,69.644127 0,139.208388 0,208.852515" />
  <path d="m394.8,341.824769c0,31.379638 0,62.759275 0,94.044962c0,25.08492 -18.2,41.996102 -45,42.090053c-62.5,0 -125,0 -187.5,0c-27.1,0 -45,-17.005133 -45,-42.465857c0,-62.665324 0,-125.236697 0,-187.902021c0,-37.580404 0,-93.011501 0,-130.591905" />
  <path d="m394.8,310.80447c0,0.3 0,0 0,0.3" />
  <path stroke-width="8" d="m256.1,412.498325c11.9,0.1 21.1,9.4 21.1,21.4c-0.1,11.9 -9.5,21.1 -21.4,21.1c-11.9,-0.1 -21.1,-9.4 -21.1,-21.4c0.1,-12 9.5,-21.2 21.4,-21.1z" />
  <path stroke-width="1" fill="black" d="m286.7,78.658658l-61.5,0c-2.8,0 -5.1,-2.3 -5.1,-5.1l0,0c0,-2.8 2.3,-5.1 5.1,-5.1l61.5,0c2.8,0 5.1,2.3 5.1,5.1l0,0c0,2.8 -2.3,5.1 -5.1,5.1z" />
</svg>
