<svg xmlns="http://www.w3.org/2000/svg" viewBox="0 0 512 512" stroke="white" stroke-miterlimit="10" stroke-linejoin="round" stroke-linecap="round" stroke-width="13" fill="none">
  <path d="m245,361.3c-1.6,0 -3,0 -4.5,0c-42.4,0 -84.8,-0.3 -127.2,0.1c-27.6,0.3 -46.7,-19.6 -49.4,-40.5c-0.1,-0.6 -0.4,-1.1 -0.6,-1.7c0,-48.1 0,-96.2 0,-144.4m0,-36c0,-4.8 0,-9.7 0,-14.5c2.3,-6.4 3.7,-13.4 7.2,-19.1c8.6,-14.5 21.9,-21.9 38.7,-22.9c0.9,-0.1 1.8,-0.1 2.6,-0.1c64.3,0 128.7,0 193,0m30.8,0c1,0 -1.3,0 1.7,0m30.3,0c10.8,0 21.6,0 32.5,0c21.5,0 39.4,12.5 46,32.3c1.7,5 2.5,10.5 2.6,15.8c0.2,60.9 0.2,121.9 0.1,182.8c0,27.3 -20.8,48.1 -48.1,48.2c-42.9,0.1 -85.8,0 -128.7,0c-1.5,0 -3,0 -4.8,0" />
  <path d="m256,423.8l0,0c-3.3,0 -6,-2.7 -6,-6l0,-37c0,-3.3 2.7,-6 6,-6l0,0c3.3,0 6,2.7 6,6l0,37c0,3.3 -2.7,6 -6,6z"/>
  <path d="m216,423.8l0,0c0,-3.3 2.7,-6 6,-6l68,0c3.3,0 6,2.7 6,6l0,0c0,3.3 -2.7,6 -6,6l-68,0c-3.3,0 -6,-2.7 -6,-6z"/>
</svg>
