<svg xmlns="http://www.w3.org/2000/svg" viewBox="0 0 512 512" stroke="black" stroke-miterlimit="10" stroke-linejoin="round" stroke-linecap="round" stroke-width="10" fill="none">
	<path d="m123.111321,99.905311c2.181922,-1.745537 4.538397,-3.403798 6.807596,-4.974782m19.986404,-11.695101c1.39643,-0.698215 2.79286,-1.39643 4.276567,-2.007368c19.462743,-8.902241 39.885532,-14.051577 61.268366,-15.098899c0.872769,0 1.658261,-0.349107 2.531029,-0.523661c5.236612,0 10.385948,0 15.622561,0c3.578352,0.523661 7.069427,0.960046 10.647779,1.483707c2.531029,0.349107 4.974782,0.785492 7.505811,1.309153m18.066313,4.625674c14.051577,4.625674 27.143108,11.345994 39.187317,19.986404m19.200912,16.146222c0.523661,0.523661 1.047322,1.047322 1.570984,1.483707m19.462743,24.262971c7.243981,11.520547 12.742424,24.001141 16.320776,37.70361c4.276567,16.582606 4.363844,33.339766 1.745537,50.184203c-3.752906,23.652033 -12.480593,44.598483 -26.357616,62.577519m-15.448007,16.669883c-1.658261,1.483707 -3.316521,3.054691 -5.062059,4.538397c-17.455375,14.749792 -37.616333,24.088417 -59.871936,29.063199c-18.502697,4.18929 -37.092672,4.18929 -55.8572,2.618306c-5.411166,-0.436384 -10.822332,-1.309153 -16.233499,-1.658261c-1.658261,-0.087277 -3.665629,0.523661 -5.149336,1.39643c-20.073681,11.520547 -40.147362,23.128372 -60.133767,34.736196c-1.134599,0.698215 -2.356476,1.309153 -3.927459,2.181922c-0.087277,-1.658261 -0.174554,-2.967414 -0.174554,-4.18929c0,-19.811851 -0.087277,-39.710978 0.087277,-59.522829c0,-2.618306 -0.785492,-4.276567 -2.705583,-6.022104c-27.143108,-24.350248 -41.281962,-54.984431 -44.423929,-91.204334c-2.880137,-32.816105 5.847551,-62.141135 25.572124,-88.149644c2.880137,-3.840182 5.934827,-7.418534 9.164072,-10.909609" />
	<path d="m415.401575,289.034299" />
	<path d="m402.920981,184.214772c12.044209,12.480593 21.644665,26.183062 28.103154,41.369239" />
	<path d="m436.958963,243.650324c0.349107,1.39643 0.698215,2.880137 0.960046,4.276567" />
	<path d="m440.450038,269.920663c0.523661,22.691987 -5.236612,44.074822 -17.018991,64.148503c-10.036841,17.193544 -23.390202,31.332398 -39.623701,42.852946c-2.181922,1.570984 -2.967414,3.141967 -2.967414,5.760274c0.087277,19.724574 0.087277,39.449147 0.087277,59.173721c0,1.309153 0,2.705583 0,4.538397c-1.570984,-0.872769 -2.79286,-1.483707 -3.840182,-2.094645c-19.811851,-12.218762 -39.710978,-24.350248 -59.435552,-36.656287c-2.443752,-1.570984 -4.800228,-1.920091 -7.680365,-1.570984c-22.953818,3.229244 -45.645806,2.618306 -67.726855,-4.538397" />
	<path d="m222.432404,392.981057c-14.575238,-7.767642 -27.404939,-18.15359 -39.623701,-30.110522" />
</svg>
