<svg width="512" height="512" xmlns="http://www.w3.org/2000/svg" stroke="black" stroke-miterlimit="10" stroke-linejoin="round" stroke-linecap="round" stroke-width="10" fill="none">
  <path d="m132.142912,105.494384c23.936168,-27.554426 50.23812,-44.810733 85.864045,-52.743068c4.453241,-0.974146 8.906481,-1.669965 13.359722,-2.22662"/>
  <path d="m260.59107,49.133058c0.695819,0 -0.556655,0 0,0"/>
  <path d="m287.032186,52.194661c5.149059,0.834983 7.37568,1.948293 12.385575,3.33993c46.063207,12.94223 79.880003,41.053312 102.146206,83.359097c12.94223,24.492823 18.230454,50.794775 18.09129,78.349202"/>
  <path d="m92.481238,311.317598c0,31.311848 0,62.762859 0,94.074707c0,4.314077 0.556655,8.767317 1.530801,12.94223c6.401533,27.415262 28.8069,44.532406 58.309619,44.532406c44.114915,0 82.941606,0 122.60328,0"/>
  <path d="m301.505218,462.866941c0.278328,0 0.556655,0 0.834983,0"/>
  <path d="m328.642153,462.866941c10.019791,0 20.31791,0 30.755193,0c4.174913,0 8.48899,-0.139164 12.524739,-0.834983c28.389409,-5.288223 47.176517,-28.250245 47.176517,-57.6138c0.139164,-59.84042 0,-119.680841 0,-179.382097c0,-1.391638 0,-2.783275 0,-4.592404c-114.392618,0 -212.642238,0 -326.617364,0c0,1.391638 -0.139164,2.504948 -0.139164,3.479094c0,16.003833 0,32.007667 0,48.0115"/>
  <path d="m283.692256,355.432512c0.139164,14.194704 -11.411429,26.023625 -25.745297,26.441116c-14.333868,0.278328 -26.58028,-11.82892 -26.58028,-26.162788c0,-14.333868 11.82892,-26.023625 26.023625,-26.023625c14.473032,-0.139164 26.162788,11.411429 26.301952,25.745297z"/>
</svg>
