<svg xmlns="http://www.w3.org/2000/svg" viewBox="0 0 512 512" stroke="white" stroke-miterlimit="10" stroke-linejoin="round" stroke-linecap="round" stroke-width="13" fill="none">
  <path d="m105,254c-9.9,6.4 -33.8,21.4 -43.7,27.8c-1.4,0.9 -2.7,1.9 -4.6,3.2c103.3,58.3 206.1,116.2 309.3,174.4c0.4,-6.1 0.8,-11.4 1.1,-16.7c1.7,-28.2 3.3,-56.3 5.2,-84.5c0.2,-3.2 1.3,-6.6 2.9,-9.3c20.3,-34.6 40.8,-69.2 61.2,-103.7c16.2,-27.4 22.4,-56.8 16.3,-88.2c-4.6,-23.8 -12.8,-41.3 -27.9,-58" />
  <path d="m407.3,81.4c-0.3,-0.2 -0.5,-0.4 -0.8,-0.6" />
  <path d="m387,68.3c-34.9,-18.6 -71.6,-20.6 -109.3,-6.6c-29.9,11.1 -51.9,31.5 -67.8,59c-2,3.5 -4.1,7 -6.1,10.5" />
  <path d="m190.5,153.7c-13.5,22.9 -27.1,45.7 -40.7,68.5c-1.5,2.5 -3.7,4.8 -6.2,6.4c-11.6,7.5 -23.2,15 -34.7,22.5" />
  <path d="m155.5,427.1c0.5,0.7 1.1,1.4 1.6,2.1" />
  <path d="m176.4,443.6c21.8,8.8 48.5,0.7 60.8,-20.2c-28.2,-15.9 -56.1,-31.6 -83.9,-47.3c-6.1,9.3 -7.9,20.5 -6,31.2" />
</svg>
