<svg xmlns="http://www.w3.org/2000/svg" viewBox="0 0 512 512" fill="white">
  <path d="m412.998615,191.941417c0,0 -3.132689,-22.078538 -12.740876,-31.804109c-12.178436,-12.758672 -25.837747,-12.819244 -32.099616,-13.566825c-44.833307,-3.243055 -112.086944,-3.243055 -112.086944,-3.243055l-0.142365,0c0,0 -67.250044,0 -112.086944,3.243055c-6.261868,0.747581 -19.914078,0.808153 -32.099616,13.566825c-9.608188,9.725571 -12.733775,31.804109 -12.733775,31.804109c0,0 -3.203871,25.926725 -3.203871,51.853451l0,24.310587c0,25.923133 3.203871,51.849858 3.203871,51.849858c0,0 3.125587,22.078538 12.733775,31.804193c12.185538,12.762181 28.194366,12.352799 35.324875,13.69131c25.634811,2.459966 108.932867,3.22175 108.932867,3.22175c0,0 67.324819,-0.103264 112.158126,-3.342727c6.261868,-0.747581 19.92118,-0.808153 32.099616,-13.570334c9.608188,-9.725655 12.740876,-31.804193 12.740876,-31.804193c0,0 3.196769,-25.926725 3.196769,-51.849858l0,-24.310587c0,-25.926725 -3.196769,-51.853451 -3.196769,-51.853451zm-190.073649,105.615038l-0.014203,-90.0191l86.5696,45.164405l-86.555397,44.854695z" />
</svg>
