<svg xmlns="http://www.w3.org/2000/svg" viewBox="0 0 512 512" stroke="black" stroke-miterlimit="10" stroke-linejoin="round" stroke-linecap="round" stroke-width="10" fill="none">
  <path d="m60.9,164c0,-5.2 0,-10.4 0,-15.6c1.8,-7.9 5,-15.1 11.6,-20.4c5.1,-4.1 10.8,-6.5 17.4,-7c2,-0.2 4.1,-0.2 6.1,-0.2c78.8,0 157.7,0 236.5,0c19.7,0 35.3,8 46.9,23.8c7.6,10.3 15.1,20.6 22.7,30.9m14.6,20.3c8.1,11 16.2,22 24.3,33c4.9,6.6 8.5,13.7 10.1,21.8c0,3.6 0,7.1 0,10.7c-1.9,11.3 -8.8,20 -15.3,28.9c-19.1,25.8 -37.9,51.8 -57,77.6c-11.3,15.3 -26.6,23.1 -45.7,23.2c-30.6,0 -61.1,0 -91.7,0m-20.3,-0.2c-0.6,0 0.2,0 -0.3,0m-22.4,0c-33.3,0 -66.6,0.1 -99.9,0.3c-19.1,0.1 -33.8,-8.3 -37.7,-27.8c0,-57.5 0,-114.9 0,-172.4" />
</svg>
