<svg viewBox="0 0 512 512" xmlns="http://www.w3.org/2000/svg">
  <path d="M442.773,116.212L281.717,23.219c-8.084-4.666-17.064-7.053-26.089-7.206v-0.008    c-0.015,0-0.021,0-0.029,0c-0.014,0-0.029,0-0.036,0v0.008c-9.018,0.153-18.006,2.541-26.089,7.206l-161.05,92.979    c-16.728,9.659-27.03,27.505-27.03,46.824v185.957c0,19.32,10.303,37.164,27.03,46.816l161.05,92.994    c8.083,4.658,17.064,7.045,26.089,7.205l0,0c0.007,0,0.022,0,0.036,0c0.008,0,0.015,0,0.029,0l0,0    c9.017-0.16,18.005-2.547,26.089-7.205l161.057-92.986c16.721-9.66,27.031-27.498,27.031-46.816V163.022    C469.805,143.709,459.494,125.857,442.773,116.212z" fill="#137D78"/>
  <path d="M209.986,198.771h-43.692l25.818,45.605L157.7,301.299h43.692l34.419-56.922L209.986,198.771z     M298.729,162.387l-68.875,121.031l44.387,78.045h46.363l-44.4-78.045l68.84-121.031H298.729L298.729,162.387z" fill="white"/>
</svg>
