<svg xmlns="http://www.w3.org/2000/svg" viewBox="0 0 512 512">
  <path fill="white" d="M8.61 260.75C8.61 397.83 119.37 508.97 256 508.97C256 508.97 256 508.97 256 508.97C392.63 508.97 503.39 397.84 503.39 260.75C503.39 260.75 503.39 260.75 503.39 260.75C503.32 159.7 442.2 68.78 348.85 30.85C427.31 66.79 477.66 145.2 477.76 231.58C477.7 284.32 458.81 335.31 424.49 375.32C424.49 368.18 424.49 332.48 424.49 268.22L377.78 255.09L377.78 221.33L337.85 210.11L337.85 140.06L184.59 96.97C184.59 302.93 184.59 417.35 184.59 440.23C181.29 439.1 178.03 437.89 174.79 436.6C174.79 414.32 174.79 302.91 174.79 102.38L161.84 109.53C161.84 302.1 161.84 409.08 161.84 430.48C161.49 430.31 161.13 430.14 160.78 429.97C160.78 429.99 160.78 430.18 160.78 430.2C157.84 428.85 154.93 427.44 152.05 425.96C152.05 405.23 152.05 301.55 152.05 114.94L139.1 122.09C139.1 299.18 139.1 397.56 139.1 417.24C138.75 417.02 138.39 416.8 138.04 416.58C138.04 416.67 138.04 417.4 138.04 417.5C135.08 415.6 132.17 413.64 129.31 411.6C129.31 392.66 129.31 297.96 129.31 127.5L116.36 134.65C116.36 293.42 116.36 381.62 116.36 399.26C116.01 398.97 115.65 398.67 115.3 398.37C115.3 398.64 115.3 400.77 115.3 401.03C65.18 359.05 36.23 296.99 36.21 231.58C36.26 141.44 90.99 60.36 174.51 26.68C75.27 61.42 8.74 155.29 8.61 260.75ZM257.94 453.78C257.9 453.78 257.86 453.79 257.83 453.79C255.31 453.7 252.79 453.57 250.28 453.39C250.28 435.95 250.28 348.78 250.28 191.87L257.94 187.64C257.94 347.33 257.94 436.04 257.94 453.78ZM240.16 452.85C237.6 452.63 235.05 452.36 232.5 452.04C232.5 435.35 232.5 351.9 232.5 201.69L222.38 207.28C222.38 353.2 222.38 434.26 222.38 450.47C219.82 450.1 217.26 449.68 214.72 449.21C214.72 433.36 214.72 354.13 214.72 211.51L232.5 201.69L240.16 197.46C240.16 350.7 240.16 435.83 240.16 452.85ZM323.93 442.89C321.8 443.66 319.66 444.39 317.51 445.08C317.51 431.64 317.51 364.45 317.51 243.51L323.93 239.96C323.93 361.72 323.93 429.37 323.93 442.89ZM309.01 447.17C306.88 447.73 304.74 448.26 302.59 448.75C302.59 435.62 302.59 369.95 302.59 251.74L309.01 248.2C309.01 367.58 309.01 433.91 309.01 447.17ZM294.09 450.47C291.96 450.8 289.81 451.1 287.67 451.37C287.67 438.61 287.67 374.81 287.67 259.98L294.09 256.44C294.09 372.85 294.09 437.53 294.09 450.47Z" />
  <path fill="#279ae7" d="M251.34 3L137.22 38L252.02 60.97L364.41 36.1L355.8 84.72C356.71 84.72 357.22 84.72 357.32 84.72C357.32 84.72 363.87 84.27 364.61 36.05C364.66 36.04 364.91 35.98 365.37 35.88C364.92 35.75 364.67 35.68 364.62 35.66C364.63 35.36 364.63 35.1 364.65 34.8C364.64 34.85 364.59 35.13 364.5 35.62L251.34 3ZM169.73 45.93C169.85 45.96 170.79 46.17 170.91 46.2C170.71 45.56 170.5 45.16 170.3 45.12C170.1 45.09 169.92 45.33 169.73 45.93ZM170.91 46.2C172.56 51.43 173.95 74.48 172.35 82.66C172.32 82.78 204.5 101.11 252.8 99.17C309.04 96.91 329.35 80.43 328.91 80.49C326.73 70.13 329.13 57.1 328.96 45.68C323.84 46.94 298.21 53.23 252.09 64.55C208.79 54.76 181.74 48.65 170.91 46.2Z" />
</svg>
